<mxfile host="app.diagrams.net" modified="2021-06-01T12:52:55.198Z" agent="5.0 (Windows)" etag="LZh1Yaesu2gG_HPzdfZX" version="14.7.3" type="github">
  <diagram id="obNtM0qAvO5QuTD8h4pH" name="Page-1">
    <mxGraphModel dx="1038" dy="519" grid="1" gridSize="10" guides="1" tooltips="1" connect="1" arrows="1" fold="1" page="1" pageScale="1" pageWidth="850" pageHeight="1100" math="0" shadow="0">
      <root>
        <mxCell id="0" />
        <mxCell id="1" parent="0" />
        <mxCell id="wXi70E9RyrrPzbHguTK--1" value="&lt;div&gt;Notifier&lt;/div&gt;" style="html=1;" vertex="1" parent="1">
          <mxGeometry x="315" y="120" width="110" height="50" as="geometry" />
        </mxCell>
        <mxCell id="wXi70E9RyrrPzbHguTK--2" value="SMS&lt;div&gt;Notifier&lt;/div&gt;" style="html=1;" vertex="1" parent="1">
          <mxGeometry x="170" y="240" width="110" height="50" as="geometry" />
        </mxCell>
        <mxCell id="wXi70E9RyrrPzbHguTK--3" value="Facebook&lt;div&gt;Notifier&lt;/div&gt;" style="html=1;" vertex="1" parent="1">
          <mxGeometry x="315" y="240" width="110" height="50" as="geometry" />
        </mxCell>
        <mxCell id="wXi70E9RyrrPzbHguTK--4" value="Slack&lt;div&gt;Notifier&lt;/div&gt;" style="html=1;" vertex="1" parent="1">
          <mxGeometry x="480" y="240" width="110" height="50" as="geometry" />
        </mxCell>
        <mxCell id="wXi70E9RyrrPzbHguTK--5" value="Extends" style="endArrow=block;endSize=16;endFill=0;html=1;entryX=0;entryY=1;entryDx=0;entryDy=0;exitX=0.5;exitY=0;exitDx=0;exitDy=0;" edge="1" parent="1" source="wXi70E9RyrrPzbHguTK--2" target="wXi70E9RyrrPzbHguTK--1">
          <mxGeometry width="160" relative="1" as="geometry">
            <mxPoint x="220" y="390" as="sourcePoint" />
            <mxPoint x="380" y="390" as="targetPoint" />
          </mxGeometry>
        </mxCell>
        <mxCell id="wXi70E9RyrrPzbHguTK--7" value="Extends" style="endArrow=block;endSize=16;endFill=0;html=1;entryX=0.5;entryY=1;entryDx=0;entryDy=0;exitX=0.5;exitY=0;exitDx=0;exitDy=0;" edge="1" parent="1" source="wXi70E9RyrrPzbHguTK--3" target="wXi70E9RyrrPzbHguTK--1">
          <mxGeometry width="160" relative="1" as="geometry">
            <mxPoint x="300" y="340" as="sourcePoint" />
            <mxPoint x="390" y="270" as="targetPoint" />
          </mxGeometry>
        </mxCell>
        <mxCell id="wXi70E9RyrrPzbHguTK--8" value="Extends" style="endArrow=block;endSize=16;endFill=0;html=1;entryX=1;entryY=1;entryDx=0;entryDy=0;exitX=0.5;exitY=0;exitDx=0;exitDy=0;" edge="1" parent="1" source="wXi70E9RyrrPzbHguTK--4" target="wXi70E9RyrrPzbHguTK--1">
          <mxGeometry width="160" relative="1" as="geometry">
            <mxPoint x="510" y="210" as="sourcePoint" />
            <mxPoint x="510" y="140" as="targetPoint" />
          </mxGeometry>
        </mxCell>
        <mxCell id="wXi70E9RyrrPzbHguTK--9" value="" style="dashed=0;outlineConnect=0;html=1;align=center;labelPosition=center;verticalLabelPosition=bottom;verticalAlign=top;shape=mxgraph.webicons.facebook;fillColor=#6294E4;gradientColor=#1A2665" vertex="1" parent="1">
          <mxGeometry x="337.3" y="300" width="65.4" height="70" as="geometry" />
        </mxCell>
        <mxCell id="wXi70E9RyrrPzbHguTK--10" value="" style="shape=image;html=1;verticalAlign=top;verticalLabelPosition=bottom;labelBackgroundColor=#ffffff;imageAspect=0;aspect=fixed;image=https://cdn4.iconfinder.com/data/icons/logos-and-brands/512/306_Slack_logo-128.png" vertex="1" parent="1">
          <mxGeometry x="500.5" y="300" width="69" height="69" as="geometry" />
        </mxCell>
        <mxCell id="wXi70E9RyrrPzbHguTK--11" value="" style="dashed=0;outlineConnect=0;html=1;align=center;labelPosition=center;verticalLabelPosition=bottom;verticalAlign=top;shape=mxgraph.weblogos.sms;fillColor=#48B921;strokeColor=none" vertex="1" parent="1">
          <mxGeometry x="191" y="306" width="69.2" height="64" as="geometry" />
        </mxCell>
      </root>
    </mxGraphModel>
  </diagram>
</mxfile>
